<?xml version="1.0" encoding="UTF-8" standalone="no"?>
<!-- Created with Inkscape (http://www.inkscape.org/) -->

<svg
   width="321"
   height="321"
   viewBox="0 0 84.931248 84.931252"
   version="1.1"
   id="svg43408"
   inkscape:version="1.1.1 (3bf5ae0d25, 2021-09-20)"
   sodipodi:docname="bomb.svg"
   xmlns:inkscape="http://www.inkscape.org/namespaces/inkscape"
   xmlns:sodipodi="http://sodipodi.sourceforge.net/DTD/sodipodi-0.dtd"
   xmlns="http://www.w3.org/2000/svg"
   xmlns:svg="http://www.w3.org/2000/svg">
  <sodipodi:namedview
     id="namedview43410"
     pagecolor="#ffffff"
     bordercolor="#666666"
     borderopacity="1.0"
     inkscape:pageshadow="2"
     inkscape:pageopacity="0.0"
     inkscape:pagecheckerboard="0"
     inkscape:document-units="mm"
     showgrid="false"
     units="px"
     width="321px"
     inkscape:zoom="2.9647587"
     inkscape:cx="67.796411"
     inkscape:cy="124.29342"
     inkscape:window-width="1920"
     inkscape:window-height="1017"
     inkscape:window-x="-8"
     inkscape:window-y="-8"
     inkscape:window-maximized="1"
     inkscape:current-layer="layer1" />
  <defs
     id="defs43405" />
  <g
     inkscape:label="Слой 1"
     inkscape:groupmode="layer"
     id="layer1">
    <path
       id="path2808"
       style="fill:#000000;fill-opacity:1;stroke:#ff0000;stroke-width:0;stroke-linejoin:bevel;stroke-opacity:1"
       d="m 35.210437,69.620331 c -4.961727,-1.332486 -9.440652,-4.01445 -13.093781,-7.840506 -2.955062,-3.094947 -5.003193,-6.484271 -6.3493,-10.50705 l -0.706664,-2.11184 v -5.05786 c 0,-3.571401 -0.07223,-5.173527 -0.245789,-5.451433 -0.304355,-0.487349 0.02203,-2.331329 0.882973,-4.988476 2.295922,-7.085982 7.525769,-13.153741 14.246777,-16.529363 1.515661,-0.761241 4.481063,-1.820781 6.246188,-2.23177 1.187937,-0.276596 1.336933,-0.275239 1.498597,0.01363 0.155214,0.277358 0.86722,0.320774 5.260654,0.320774 3.377997,0 5.155779,-0.07464 5.30381,-0.22267 0.160029,-0.160029 0.654306,-0.101551 1.757007,0.207866 4.704349,1.320043 8.80558,3.739262 12.377781,7.301371 3.844244,3.833377 6.345857,8.348552 7.603999,13.724523 0.359502,1.536143 0.360201,1.619982 0.01513,1.813142 -0.333696,0.186744 -0.359017,0.653007 -0.325046,5.985333 0.03659,5.742511 0.03311,5.79392 -0.50085,7.376391 -2.605377,7.721639 -9.106679,14.460051 -16.71378,17.323358 -2.030529,0.764287 -4.128834,1.298818 -4.260742,1.085393 -0.16426,-0.265787 -10.296882,-0.252189 -10.461418,0.01399 -0.181367,0.293457 -0.814555,0.237305 -2.535465,-0.224854 z M 2.602079,46.082174 0.20939059,43.669943 2.5229299,41.257716 4.8364692,38.845485 h 5.5484628 5.548467 l -0.02577,2.514877 c -0.01415,1.383183 0.05668,3.554187 0.157426,4.824458 L 16.24825,48.4944 H 10.621512 4.9947691 Z M 12.919444,21.285748 c -1.235542,-1.433401 -2.146002,-2.658173 -2.044679,-2.750548 2.435535,-2.220484 5.079755,-4.530529 5.185921,-4.530529 0.129034,0 2.447554,2.335448 4.184984,4.215539 l 0.765317,0.828155 -2.682858,2.315059 c -1.47557,1.273283 -2.795017,2.358101 -2.932102,2.410704 -0.137086,0.05261 -1.251549,-1.067165 -2.476583,-2.48838 z m 32.627707,-5.369947 c -0.677478,-0.106919 -2.640622,-0.149699 -4.362541,-0.09505 l -3.130763,0.09936 V 10.442528 4.9649448 l 2.360904,-2.3542053 2.360903,-2.35420706 2.360902,2.35420706 2.360904,2.3542053 v 5.5976662 c 0,5.203782 -0.02526,5.595904 -0.359267,5.57263 -0.197596,-0.01383 -0.913568,-0.112515 -1.591042,-0.219443 z m 19.517483,4.959358 c -1.235543,-1.433403 -2.146005,-2.658174 -2.044684,-2.75055 2.435536,-2.220484 5.079757,-4.53053 5.185923,-4.53053 0.129025,0 2.447557,2.335448 4.184986,4.215539 l 0.765315,0.828155 -2.682856,2.315058 c -1.475571,1.273283 -2.795017,2.358102 -2.932103,2.410707 -0.137077,0.05261 -1.251548,-1.067169 -2.476581,-2.488379 z m 3.546342,27.003355 c 0.354643,-1.422217 0.581765,-4.642643 0.477793,-6.774771 l -0.117622,-2.412227 h 5.382108 5.382105 l 2.409083,2.415373 2.409082,2.415377 -2.415377,2.40908 -2.415374,2.409085 h -5.613499 -5.613487 z m -2.80178,24.596021 c -1.163372,-1.346111 -2.160091,-2.564406 -2.214933,-2.707313 -0.05638,-0.146951 1.04103,-1.286889 2.525815,-2.623696 l 2.62552,-2.363855 2.478602,2.584082 2.4786,2.584083 -1.452121,1.254924 c -0.798665,0.690208 -2.0988,1.809397 -2.88919,2.487085 l -1.437074,1.232164 z M 40.565371,82.467679 38.259143,80.154888 V 74.54747 68.940056 l 0.66721,0.149765 c 0.920724,0.20667 6.382125,0.153994 7.698602,-0.07426 l 1.077802,-0.186867 v 5.67766 5.677661 l -2.329383,2.298221 c -1.281159,1.264026 -2.368168,2.298223 -2.415573,2.298223 -0.0474,0 -1.124001,-1.040755 -2.39243,-2.312791 z m -28.298082,-14.11037 5.008235,5.806646 6.314729,-5.44373 -5.44373,-5.661479 z" />
    <rect
       style="fill:#f9f9f9;stroke:#ff0000;stroke-width:0;stroke-linejoin:bevel"
       id="rect880"
       width="12.404748"
       height="12.404748"
       x="24.541767"
       y="23.917068" />
  </g>
</svg>
