<?xml version="1.0" encoding="UTF-8" standalone="no"?>
<!-- Created with Inkscape (http://www.inkscape.org/) -->

<svg
   width="321"
   height="321"
   viewBox="0 0 84.931248 84.931252"
   version="1.1"
   id="svg43408"
   inkscape:version="1.1.1 (3bf5ae0d25, 2021-09-20)"
   sodipodi:docname="glasses.svg"
   xmlns:inkscape="http://www.inkscape.org/namespaces/inkscape"
   xmlns:sodipodi="http://sodipodi.sourceforge.net/DTD/sodipodi-0.dtd"
   xmlns="http://www.w3.org/2000/svg"
   xmlns:svg="http://www.w3.org/2000/svg">
  <sodipodi:namedview
     id="namedview43410"
     pagecolor="#ffffff"
     bordercolor="#666666"
     borderopacity="1.0"
     inkscape:pageshadow="2"
     inkscape:pageopacity="0.0"
     inkscape:pagecheckerboard="0"
     inkscape:document-units="mm"
     showgrid="false"
     units="px"
     width="321px"
     inkscape:zoom="2.0964009"
     inkscape:cx="202.25139"
     inkscape:cy="172.43839"
     inkscape:window-width="1920"
     inkscape:window-height="1017"
     inkscape:window-x="-8"
     inkscape:window-y="-8"
     inkscape:window-maximized="1"
     inkscape:current-layer="layer1" />
  <defs
     id="defs43405">
    <inkscape:path-effect
       effect="powerstroke"
       id="path-effect3696"
       is_visible="true"
       lpeversion="1"
       offset_points="0,1"
       not_jump="false"
       sort_points="true"
       interpolator_type="CubicBezierJohan"
       interpolator_beta="0.2"
       start_linecap_type="zerowidth"
       linejoin_type="extrp_arc"
       miter_limit="4"
       scale_width="1"
       end_linecap_type="zerowidth" />
    <inkscape:path-effect
       effect="powerstroke"
       id="path-effect3466"
       is_visible="true"
       lpeversion="1"
       offset_points="0,1"
       not_jump="false"
       sort_points="true"
       interpolator_type="CubicBezierJohan"
       interpolator_beta="0.2"
       start_linecap_type="zerowidth"
       linejoin_type="extrp_arc"
       miter_limit="4"
       scale_width="1"
       end_linecap_type="zerowidth" />
    <inkscape:path-effect
       effect="powerstroke"
       id="path-effect2699"
       is_visible="true"
       lpeversion="1"
       offset_points="0,1.0837548"
       not_jump="false"
       sort_points="true"
       interpolator_type="CubicBezierJohan"
       interpolator_beta="0.2"
       start_linecap_type="zerowidth"
       linejoin_type="extrp_arc"
       miter_limit="4"
       scale_width="1"
       end_linecap_type="zerowidth" />
    <inkscape:path-effect
       effect="powerstroke"
       id="path-effect1067"
       is_visible="true"
       lpeversion="1"
       offset_points="0,1"
       not_jump="false"
       sort_points="true"
       interpolator_type="CubicBezierJohan"
       interpolator_beta="0.2"
       start_linecap_type="zerowidth"
       linejoin_type="extrp_arc"
       miter_limit="4"
       scale_width="1"
       end_linecap_type="zerowidth" />
    <inkscape:path-effect
       effect="powerstroke"
       id="path-effect1030"
       is_visible="true"
       lpeversion="1"
       offset_points="0,1"
       not_jump="false"
       sort_points="true"
       interpolator_type="CubicBezierJohan"
       interpolator_beta="0.2"
       start_linecap_type="zerowidth"
       linejoin_type="extrp_arc"
       miter_limit="4"
       scale_width="1"
       end_linecap_type="zerowidth" />
    <inkscape:path-effect
       effect="powerstroke"
       id="path-effect1905"
       is_visible="true"
       lpeversion="1"
       offset_points="0,1.1963858"
       not_jump="false"
       sort_points="true"
       interpolator_type="CubicBezierJohan"
       interpolator_beta="0.2"
       start_linecap_type="zerowidth"
       linejoin_type="extrp_arc"
       miter_limit="4"
       scale_width="1"
       end_linecap_type="zerowidth" />
    <inkscape:path-effect
       effect="powerstroke"
       id="path-effect1901"
       is_visible="true"
       lpeversion="1"
       offset_points="0,1"
       not_jump="false"
       sort_points="true"
       interpolator_type="CubicBezierJohan"
       interpolator_beta="0.2"
       start_linecap_type="zerowidth"
       linejoin_type="extrp_arc"
       miter_limit="4"
       scale_width="1"
       end_linecap_type="zerowidth" />
    <inkscape:path-effect
       effect="powerstroke"
       id="path-effect1575"
       is_visible="true"
       lpeversion="1"
       offset_points="0,1"
       not_jump="false"
       sort_points="true"
       interpolator_type="CubicBezierJohan"
       interpolator_beta="0.2"
       start_linecap_type="zerowidth"
       linejoin_type="extrp_arc"
       miter_limit="4"
       scale_width="1"
       end_linecap_type="zerowidth" />
    <inkscape:path-effect
       effect="powerstroke"
       id="path-effect1018"
       is_visible="true"
       lpeversion="1"
       offset_points="0,1.0496737"
       not_jump="false"
       sort_points="true"
       interpolator_type="CubicBezierJohan"
       interpolator_beta="0.2"
       start_linecap_type="zerowidth"
       linejoin_type="extrp_arc"
       miter_limit="4"
       scale_width="1"
       end_linecap_type="zerowidth" />
    <inkscape:path-effect
       effect="powerstroke"
       id="path-effect1032"
       is_visible="true"
       lpeversion="1"
       offset_points="0,1"
       not_jump="false"
       sort_points="true"
       interpolator_type="CubicBezierJohan"
       interpolator_beta="0.2"
       start_linecap_type="zerowidth"
       linejoin_type="extrp_arc"
       miter_limit="4"
       scale_width="1"
       end_linecap_type="zerowidth" />
  </defs>
  <g
     inkscape:label="Слой 1"
     inkscape:groupmode="layer"
     id="layer1">
    <circle
       style="fill:#ffd42a;stroke:#000000;stroke-width:1.38063;stroke-linejoin:bevel;stroke-miterlimit:4;stroke-dasharray:none;stroke-opacity:1"
       id="path926"
       cx="42.877987"
       cy="41.924313"
       r="41.212757" />
    <path
       style="fill:#000000;fill-rule:nonzero;stroke:none;stroke-width:0;stroke-linecap:butt;stroke-linejoin:miter;stroke-miterlimit:4;stroke-dasharray:none;stroke-opacity:1"
       d="m 18.676025,57.241036 c 1.824719,2.153161 3.949327,4.33603 6.35888,6.225951 1.960256,1.537519 4.075127,2.85504 6.357471,3.83333 2.021581,0.866517 4.130817,1.448302 6.341665,1.706788 2.039125,0.238409 4.119136,0.196633 6.253977,-0.117398 3.990473,-0.586992 7.98583,-2.09522 12.105863,-4.235895 3.921814,-2.037686 7.802055,-4.565098 11.723802,-7.192303 l -1.351427,-1.974444 c -4.104768,2.870102 -8.0976,5.366401 -12.022191,7.255482 -4.120459,1.983359 -7.973301,3.202751 -11.646091,3.586379 -1.963152,0.205054 -3.838604,0.167239 -5.641641,-0.09962 C 35.20206,65.940063 33.353102,65.384623 31.593265,64.599011 29.603443,63.71073 27.75961,62.542254 26.04883,61.184027 23.943217,59.512332 22.094156,57.596262 20.506049,55.699506 Z m -0.0046,-0.0055 c 1.662067,1.985092 3.625329,4.02477 5.889599,5.822426 1.842171,1.462541 3.856137,2.743521 6.056842,3.725943 1.948912,0.870017 4.007599,1.489609 6.188132,1.81234 2.011239,0.297674 4.088205,0.337272 6.240536,0.112459 4.019588,-0.419852 8.142459,-1.743862 12.435297,-3.810195 4.085855,-1.966704 8.196051,-4.542164 12.355545,-7.450532 l -1.351427,-1.974444 c -3.919383,2.62562 -7.702697,5.086415 -11.495274,7.056953 -3.977513,2.066625 -7.711351,3.456506 -11.350883,3.991875 -1.94124,0.285553 -3.810368,0.320613 -5.627896,0.108113 -1.969844,-0.230308 -3.85576,-0.748879 -5.676848,-1.529458 -2.059577,-0.882804 -3.997062,-2.084297 -5.823439,-3.516808 -2.248185,-1.763354 -4.257718,-3.822328 -6.01016,-5.890202 z"
       id="path1903"
       sodipodi:nodetypes="ccc"
       inkscape:original-d="m 19.588741,56.467545 c 16.628915,19.622052 32.117166,10.347318 47.563079,0 -16.316885,11.40896 -32.440928,18.061158 -47.563079,0 z"
       inkscape:path-effect="#path-effect1905" />
    <g
       id="g3894"
       transform="matrix(1.1855658,0,0,1.1855658,-6.6304968,-5.786058)">
      <path
         style="fill:#000000;fill-opacity:1;stroke:#000000;stroke-width:0;stroke-linejoin:bevel"
         d="m 20.706344,37.477273 c -2.053742,-0.811923 -4.187139,-3.289962 -5.856998,-6.803175 -0.881075,-1.853696 -2.31779,-5.841286 -2.618455,-7.267505 l -0.127101,-0.602912 1.803452,-0.105778 c 2.638649,-0.154767 8.43551,0.17459 11.113214,0.631414 4.224668,0.720738 8.002003,1.915545 11.331191,3.584162 l 1.633519,0.818733 -2.894219,2.918128 c -3.299205,3.32646 -5.400909,4.959759 -8.015413,6.229039 -1.698981,0.824812 -1.944896,0.889421 -3.588137,0.942711 -1.42304,0.04614 -1.960772,-0.02053 -2.781053,-0.344817 z"
         id="path2443" />
      <path
         style="fill:#000000;fill-opacity:1;stroke:#000000;stroke-width:0;stroke-linejoin:bevel"
         d="m 62.672326,37.477273 c 2.053742,-0.811923 4.187139,-3.289962 5.856998,-6.803175 0.881075,-1.853696 2.31779,-5.841286 2.618455,-7.267505 l 0.127101,-0.602912 -1.803452,-0.105778 c -2.638649,-0.154767 -8.43551,0.17459 -11.113214,0.631414 -4.224668,0.720738 -8.002003,1.915545 -11.331191,3.584162 l -1.633519,0.818733 2.894219,2.918128 c 3.299205,3.32646 5.400909,4.959759 8.015413,6.229039 1.698981,0.824812 1.944896,0.889421 3.588137,0.942711 1.42304,0.04614 1.960772,-0.02053 2.781053,-0.344817 z"
         id="path2443-4" />
      <path
         style="fill:#000000;fill-rule:nonzero;stroke:none;stroke-width:0.286743px;stroke-linecap:butt;stroke-linejoin:miter;stroke-opacity:1"
         d="m 35.95135,28.393135 c 0.057,-0.07408 0.136771,-0.157305 0.251998,-0.24372 0.101112,-0.07583 0.232284,-0.156159 0.403082,-0.234803 0.301539,-0.138843 0.714162,-0.266662 1.272694,-0.356322 0.966397,-0.155134 2.235713,-0.174844 3.811441,-0.03793 1.392632,0.121009 2.897456,0.35318 4.402751,0.645507 1.427146,0.277152 2.769845,0.591855 3.872207,0.869657 0.32044,0.08075 0.640404,0.163383 0.959874,0.247887 0.212486,-0.366203 0.343394,-0.773969 0.383774,-1.195424 0.03824,-0.399106 -0.0068,-0.790939 -0.144079,-1.161031 -0.137127,-0.369681 -0.353327,-0.682962 -0.613388,-0.942918 -0.25865,-0.258546 -0.559593,-0.463653 -0.873408,-0.627913 -0.316895,-0.165872 -0.660735,-0.297329 -1.015112,-0.402334 -0.718624,-0.212936 -1.53282,-0.332328 -2.362907,-0.389685 -0.866289,-0.05986 -1.780269,-0.05418 -2.67733,-0.005 -1.980903,0.108663 -3.890859,0.424831 -5.3795,0.785855 -0.875161,0.212244 -1.612347,0.441462 -2.204265,0.670699 -0.339452,0.131462 -0.635411,0.264491 -0.890528,0.39841 -0.29159,0.153065 -0.539805,0.312454 -0.745064,0.481455 z m -0.170034,0.175732 c 0.06297,-0.05185 0.17873,-0.132696 0.374767,-0.235602 0.169199,-0.08882 0.388115,-0.188776 0.665875,-0.296346 0.485703,-0.188102 1.12936,-0.390738 1.932342,-0.585477 1.356536,-0.328986 3.147922,-0.627144 4.987367,-0.728048 0.830037,-0.04553 1.651977,-0.04925 2.409196,0.0031 0.734148,0.05073 1.379736,0.152397 1.896529,0.305527 0.251722,0.07459 0.45961,0.157531 0.625737,0.244487 0.165185,0.08646 0.275372,0.169712 0.346222,0.240533 0.06764,0.06761 0.09811,0.122182 0.113534,0.163762 0.01486,0.04007 0.02818,0.101111 0.01866,0.200495 l 1.343648,-0.947537 c -1.128967,-0.284506 -2.511984,-0.608846 -3.988661,-0.895616 -1.554639,-0.301911 -3.138088,-0.547632 -4.62833,-0.677123 -1.673506,-0.145414 -3.136267,-0.136466 -4.342621,0.05719 -0.705598,0.113269 -1.316168,0.288394 -1.83569,0.527607 -0.297715,0.137082 -0.562853,0.29399 -0.796988,0.469579 -0.269764,0.202309 -0.490568,0.423597 -0.669343,0.655924 z"
         id="path2697"
         inkscape:path-effect="#path-effect2699"
         inkscape:original-d="m 35.092453,27.732212 c 2.056833,-2.67294 10.742342,-0.85529 15.137903,0.252417 0.381834,-3.985293 -12.797331,-2.179535 -15.137903,-0.252417 z"
         sodipodi:nodetypes="ccc" />
    </g>
    <path
       style="fill:#000000;fill-rule:nonzero;stroke:none;stroke-width:0.26458299;stroke-linecap:butt;stroke-linejoin:miter;stroke-opacity:1;stroke-miterlimit:4;stroke-dasharray:none"
       d="m 71.32356,22.926689 c 1.099281,-0.435057 4.397123,-1.740228 6.595684,-2.610343 L 77.82188,20.07033 c -2.198562,0.870114 -5.496404,2.175285 -6.595684,2.610343 z m 0,0 c 1.099281,-0.435057 4.397123,-1.740228 6.595684,-2.610343 L 77.82188,20.07033 c -2.198562,0.870114 -5.496404,2.175285 -6.595684,2.610343 z"
       id="path3464"
       inkscape:path-effect="#path-effect3466"
       inkscape:original-d="m 71.274878,22.803681 6.595684,-2.610343 z" />
  </g>
</svg>
